<svg viewBox="0 0 50 50" fill="none" xmlns="http://www.w3.org/2000/svg">
<path d="M50 25C50 38.8105 38.8105 50 25 50C11.1895 50 0 38.8105 0 25C0 11.1895 11.1895 0 25 0C38.8105 0 50 11.1895 50 25ZM20.5645 13.3065V25H13.4173C12.3387 25 11.7944 26.3105 12.5605 27.0665L24.1431 38.5887C24.6169 39.0625 25.373 39.0625 25.8468 38.5887L37.4294 27.0665C38.1956 26.3004 37.6512 25 36.5726 25H29.4355V13.3065C29.4355 12.6411 28.8911 12.0968 28.2258 12.0968H21.7742C21.1089 12.0968 20.5645 12.6411 20.5645 13.3065Z" fill="#66FCF1"/>
</svg>